%TF.GenerationSoftware,KiCad,Pcbnew,8.0.4-8.0.4-0~ubuntu20.04.1*%
%TF.CreationDate,2024-10-09T19:36:55+03:00*%
%TF.ProjectId,kbrd,6b627264-2e6b-4696-9361-645f70636258,rev?*%
%TF.SameCoordinates,Original*%
%TF.FileFunction,Paste,Top*%
%TF.FilePolarity,Positive*%
%FSLAX46Y46*%
G04 Gerber Fmt 4.6, Leading zero omitted, Abs format (unit mm)*
G04 Created by KiCad (PCBNEW 8.0.4-8.0.4-0~ubuntu20.04.1) date 2024-10-09 19:36:55*
%MOMM*%
%LPD*%
G01*
G04 APERTURE LIST*
G04 Aperture macros list*
%AMRoundRect*
0 Rectangle with rounded corners*
0 $1 Rounding radius*
0 $2 $3 $4 $5 $6 $7 $8 $9 X,Y pos of 4 corners*
0 Add a 4 corners polygon primitive as box body*
4,1,4,$2,$3,$4,$5,$6,$7,$8,$9,$2,$3,0*
0 Add four circle primitives for the rounded corners*
1,1,$1+$1,$2,$3*
1,1,$1+$1,$4,$5*
1,1,$1+$1,$6,$7*
1,1,$1+$1,$8,$9*
0 Add four rect primitives between the rounded corners*
20,1,$1+$1,$2,$3,$4,$5,0*
20,1,$1+$1,$4,$5,$6,$7,0*
20,1,$1+$1,$6,$7,$8,$9,0*
20,1,$1+$1,$8,$9,$2,$3,0*%
G04 Aperture macros list end*
%ADD10RoundRect,0.237500X-0.300000X-0.237500X0.300000X-0.237500X0.300000X0.237500X-0.300000X0.237500X0*%
%ADD11R,1.800000X2.000000*%
%ADD12RoundRect,0.237500X0.250000X0.237500X-0.250000X0.237500X-0.250000X-0.237500X0.250000X-0.237500X0*%
%ADD13RoundRect,0.237500X-0.237500X0.300000X-0.237500X-0.300000X0.237500X-0.300000X0.237500X0.300000X0*%
%ADD14RoundRect,0.237500X0.237500X-0.287500X0.237500X0.287500X-0.237500X0.287500X-0.237500X-0.287500X0*%
%ADD15R,1.050000X0.600000*%
%ADD16RoundRect,0.237500X-0.287500X-0.237500X0.287500X-0.237500X0.287500X0.237500X-0.287500X0.237500X0*%
%ADD17RoundRect,0.237500X0.237500X-0.300000X0.237500X0.300000X-0.237500X0.300000X-0.237500X-0.300000X0*%
%ADD18RoundRect,0.075000X-0.662500X-0.075000X0.662500X-0.075000X0.662500X0.075000X-0.662500X0.075000X0*%
%ADD19RoundRect,0.075000X-0.075000X-0.662500X0.075000X-0.662500X0.075000X0.662500X-0.075000X0.662500X0*%
%ADD20RoundRect,0.200000X0.200000X0.475000X-0.200000X0.475000X-0.200000X-0.475000X0.200000X-0.475000X0*%
%ADD21RoundRect,0.125000X0.125000X0.550000X-0.125000X0.550000X-0.125000X-0.550000X0.125000X-0.550000X0*%
%ADD22O,1.200000X2.300000*%
%ADD23O,1.200000X2.000000*%
G04 APERTURE END LIST*
D10*
%TO.C,C4*%
X141737500Y-88400000D03*
X143462500Y-88400000D03*
%TD*%
D11*
%TO.C,Y1*%
X132520000Y-79200000D03*
X137600000Y-79200000D03*
X137600000Y-75200000D03*
X132520000Y-75200000D03*
%TD*%
D10*
%TO.C,C2*%
X141537500Y-75800000D03*
X143262500Y-75800000D03*
%TD*%
D12*
%TO.C,R1*%
X178187500Y-85800000D03*
X176362500Y-85800000D03*
%TD*%
D13*
%TO.C,C7*%
X180075000Y-89925000D03*
X180075000Y-91650000D03*
%TD*%
D12*
%TO.C,R3*%
X168387500Y-90000000D03*
X166562500Y-90000000D03*
%TD*%
%TO.C,R2*%
X173475000Y-85800000D03*
X171650000Y-85800000D03*
%TD*%
D14*
%TO.C,D3*%
X163300000Y-99550000D03*
X163300000Y-97800000D03*
%TD*%
%TO.C,D1*%
X163300000Y-80350000D03*
X163300000Y-78600000D03*
%TD*%
D15*
%TO.C,U2*%
X176675000Y-91750000D03*
X176675000Y-89850000D03*
X174075000Y-90800000D03*
%TD*%
D14*
%TO.C,D4*%
X182300000Y-99550000D03*
X182300000Y-97800000D03*
%TD*%
%TO.C,D2*%
X144300000Y-99550000D03*
X144300000Y-97800000D03*
%TD*%
D10*
%TO.C,C3*%
X141737500Y-85242500D03*
X143462500Y-85242500D03*
%TD*%
D16*
%TO.C,D5*%
X166725000Y-85800000D03*
X168475000Y-85800000D03*
%TD*%
D17*
%TO.C,C6*%
X170775000Y-91725000D03*
X170775000Y-90000000D03*
%TD*%
D10*
%TO.C,C5*%
X141737500Y-91700000D03*
X143462500Y-91700000D03*
%TD*%
D18*
%TO.C,U1*%
X129637500Y-85250000D03*
X129637500Y-85750000D03*
X129637500Y-86250000D03*
X129637500Y-86750000D03*
X129637500Y-87250000D03*
X129637500Y-87750000D03*
X129637500Y-88250000D03*
X129637500Y-88750000D03*
X129637500Y-89250000D03*
X129637500Y-89750000D03*
X129637500Y-90250000D03*
X129637500Y-90750000D03*
D19*
X131050000Y-92162500D03*
X131550000Y-92162500D03*
X132050000Y-92162500D03*
X132550000Y-92162500D03*
X133050000Y-92162500D03*
X133550000Y-92162500D03*
X134050000Y-92162500D03*
X134550000Y-92162500D03*
X135050000Y-92162500D03*
X135550000Y-92162500D03*
X136050000Y-92162500D03*
X136550000Y-92162500D03*
D18*
X137962500Y-90750000D03*
X137962500Y-90250000D03*
X137962500Y-89750000D03*
X137962500Y-89250000D03*
X137962500Y-88750000D03*
X137962500Y-88250000D03*
X137962500Y-87750000D03*
X137962500Y-87250000D03*
X137962500Y-86750000D03*
X137962500Y-86250000D03*
X137962500Y-85750000D03*
X137962500Y-85250000D03*
D19*
X136550000Y-83837500D03*
X136050000Y-83837500D03*
X135550000Y-83837500D03*
X135050000Y-83837500D03*
X134550000Y-83837500D03*
X134050000Y-83837500D03*
X133550000Y-83837500D03*
X133050000Y-83837500D03*
X132550000Y-83837500D03*
X132050000Y-83837500D03*
X131550000Y-83837500D03*
X131050000Y-83837500D03*
%TD*%
D10*
%TO.C,C1*%
X141575000Y-79200000D03*
X143300000Y-79200000D03*
%TD*%
D20*
%TO.C,J1*%
X176680000Y-79475000D03*
X175880000Y-79475000D03*
D21*
X174730000Y-79475000D03*
X173730000Y-79475000D03*
X173230000Y-79475000D03*
X172230000Y-79475000D03*
D20*
X171080000Y-79475000D03*
X170280000Y-79475000D03*
X170280000Y-79475000D03*
X171080000Y-79475000D03*
D21*
X171730000Y-79475000D03*
X172730000Y-79475000D03*
X174230000Y-79475000D03*
X175230000Y-79475000D03*
D20*
X175880000Y-79475000D03*
X176680000Y-79475000D03*
D22*
X177800000Y-78900000D03*
D23*
X177800000Y-74720000D03*
D22*
X169160000Y-78900000D03*
D23*
X169160000Y-74720000D03*
%TD*%
M02*
