%TF.GenerationSoftware,KiCad,Pcbnew,8.0.4-8.0.4-0~ubuntu20.04.1*%
%TF.CreationDate,2024-10-09T19:36:55+03:00*%
%TF.ProjectId,kbrd,6b627264-2e6b-4696-9361-645f70636258,rev?*%
%TF.SameCoordinates,Original*%
%TF.FileFunction,Legend,Top*%
%TF.FilePolarity,Positive*%
%FSLAX46Y46*%
G04 Gerber Fmt 4.6, Leading zero omitted, Abs format (unit mm)*
G04 Created by KiCad (PCBNEW 8.0.4-8.0.4-0~ubuntu20.04.1) date 2024-10-09 19:36:55*
%MOMM*%
%LPD*%
G01*
G04 APERTURE LIST*
%ADD10C,0.150000*%
%ADD11C,0.120000*%
%ADD12C,0.127000*%
G04 APERTURE END LIST*
D10*
X153466667Y-96707200D02*
X153609524Y-96754819D01*
X153609524Y-96754819D02*
X153847619Y-96754819D01*
X153847619Y-96754819D02*
X153942857Y-96707200D01*
X153942857Y-96707200D02*
X153990476Y-96659580D01*
X153990476Y-96659580D02*
X154038095Y-96564342D01*
X154038095Y-96564342D02*
X154038095Y-96469104D01*
X154038095Y-96469104D02*
X153990476Y-96373866D01*
X153990476Y-96373866D02*
X153942857Y-96326247D01*
X153942857Y-96326247D02*
X153847619Y-96278628D01*
X153847619Y-96278628D02*
X153657143Y-96231009D01*
X153657143Y-96231009D02*
X153561905Y-96183390D01*
X153561905Y-96183390D02*
X153514286Y-96135771D01*
X153514286Y-96135771D02*
X153466667Y-96040533D01*
X153466667Y-96040533D02*
X153466667Y-95945295D01*
X153466667Y-95945295D02*
X153514286Y-95850057D01*
X153514286Y-95850057D02*
X153561905Y-95802438D01*
X153561905Y-95802438D02*
X153657143Y-95754819D01*
X153657143Y-95754819D02*
X153895238Y-95754819D01*
X153895238Y-95754819D02*
X154038095Y-95802438D01*
X154371429Y-95754819D02*
X154609524Y-96754819D01*
X154609524Y-96754819D02*
X154800000Y-96040533D01*
X154800000Y-96040533D02*
X154990476Y-96754819D01*
X154990476Y-96754819D02*
X155228572Y-95754819D01*
X155514286Y-95754819D02*
X156133333Y-95754819D01*
X156133333Y-95754819D02*
X155800000Y-96135771D01*
X155800000Y-96135771D02*
X155942857Y-96135771D01*
X155942857Y-96135771D02*
X156038095Y-96183390D01*
X156038095Y-96183390D02*
X156085714Y-96231009D01*
X156085714Y-96231009D02*
X156133333Y-96326247D01*
X156133333Y-96326247D02*
X156133333Y-96564342D01*
X156133333Y-96564342D02*
X156085714Y-96659580D01*
X156085714Y-96659580D02*
X156038095Y-96707200D01*
X156038095Y-96707200D02*
X155942857Y-96754819D01*
X155942857Y-96754819D02*
X155657143Y-96754819D01*
X155657143Y-96754819D02*
X155561905Y-96707200D01*
X155561905Y-96707200D02*
X155514286Y-96659580D01*
X134356667Y-96707200D02*
X134499524Y-96754819D01*
X134499524Y-96754819D02*
X134737619Y-96754819D01*
X134737619Y-96754819D02*
X134832857Y-96707200D01*
X134832857Y-96707200D02*
X134880476Y-96659580D01*
X134880476Y-96659580D02*
X134928095Y-96564342D01*
X134928095Y-96564342D02*
X134928095Y-96469104D01*
X134928095Y-96469104D02*
X134880476Y-96373866D01*
X134880476Y-96373866D02*
X134832857Y-96326247D01*
X134832857Y-96326247D02*
X134737619Y-96278628D01*
X134737619Y-96278628D02*
X134547143Y-96231009D01*
X134547143Y-96231009D02*
X134451905Y-96183390D01*
X134451905Y-96183390D02*
X134404286Y-96135771D01*
X134404286Y-96135771D02*
X134356667Y-96040533D01*
X134356667Y-96040533D02*
X134356667Y-95945295D01*
X134356667Y-95945295D02*
X134404286Y-95850057D01*
X134404286Y-95850057D02*
X134451905Y-95802438D01*
X134451905Y-95802438D02*
X134547143Y-95754819D01*
X134547143Y-95754819D02*
X134785238Y-95754819D01*
X134785238Y-95754819D02*
X134928095Y-95802438D01*
X135261429Y-95754819D02*
X135499524Y-96754819D01*
X135499524Y-96754819D02*
X135690000Y-96040533D01*
X135690000Y-96040533D02*
X135880476Y-96754819D01*
X135880476Y-96754819D02*
X136118572Y-95754819D01*
X136451905Y-95850057D02*
X136499524Y-95802438D01*
X136499524Y-95802438D02*
X136594762Y-95754819D01*
X136594762Y-95754819D02*
X136832857Y-95754819D01*
X136832857Y-95754819D02*
X136928095Y-95802438D01*
X136928095Y-95802438D02*
X136975714Y-95850057D01*
X136975714Y-95850057D02*
X137023333Y-95945295D01*
X137023333Y-95945295D02*
X137023333Y-96040533D01*
X137023333Y-96040533D02*
X136975714Y-96183390D01*
X136975714Y-96183390D02*
X136404286Y-96754819D01*
X136404286Y-96754819D02*
X137023333Y-96754819D01*
X142433333Y-87329580D02*
X142385714Y-87377200D01*
X142385714Y-87377200D02*
X142242857Y-87424819D01*
X142242857Y-87424819D02*
X142147619Y-87424819D01*
X142147619Y-87424819D02*
X142004762Y-87377200D01*
X142004762Y-87377200D02*
X141909524Y-87281961D01*
X141909524Y-87281961D02*
X141861905Y-87186723D01*
X141861905Y-87186723D02*
X141814286Y-86996247D01*
X141814286Y-86996247D02*
X141814286Y-86853390D01*
X141814286Y-86853390D02*
X141861905Y-86662914D01*
X141861905Y-86662914D02*
X141909524Y-86567676D01*
X141909524Y-86567676D02*
X142004762Y-86472438D01*
X142004762Y-86472438D02*
X142147619Y-86424819D01*
X142147619Y-86424819D02*
X142242857Y-86424819D01*
X142242857Y-86424819D02*
X142385714Y-86472438D01*
X142385714Y-86472438D02*
X142433333Y-86520057D01*
X143290476Y-86758152D02*
X143290476Y-87424819D01*
X143052381Y-86377200D02*
X142814286Y-87091485D01*
X142814286Y-87091485D02*
X143433333Y-87091485D01*
X134583809Y-73178628D02*
X134583809Y-73654819D01*
X134250476Y-72654819D02*
X134583809Y-73178628D01*
X134583809Y-73178628D02*
X134917142Y-72654819D01*
X135774285Y-73654819D02*
X135202857Y-73654819D01*
X135488571Y-73654819D02*
X135488571Y-72654819D01*
X135488571Y-72654819D02*
X135393333Y-72797676D01*
X135393333Y-72797676D02*
X135298095Y-72892914D01*
X135298095Y-72892914D02*
X135202857Y-72940533D01*
X142333333Y-74459580D02*
X142285714Y-74507200D01*
X142285714Y-74507200D02*
X142142857Y-74554819D01*
X142142857Y-74554819D02*
X142047619Y-74554819D01*
X142047619Y-74554819D02*
X141904762Y-74507200D01*
X141904762Y-74507200D02*
X141809524Y-74411961D01*
X141809524Y-74411961D02*
X141761905Y-74316723D01*
X141761905Y-74316723D02*
X141714286Y-74126247D01*
X141714286Y-74126247D02*
X141714286Y-73983390D01*
X141714286Y-73983390D02*
X141761905Y-73792914D01*
X141761905Y-73792914D02*
X141809524Y-73697676D01*
X141809524Y-73697676D02*
X141904762Y-73602438D01*
X141904762Y-73602438D02*
X142047619Y-73554819D01*
X142047619Y-73554819D02*
X142142857Y-73554819D01*
X142142857Y-73554819D02*
X142285714Y-73602438D01*
X142285714Y-73602438D02*
X142333333Y-73650057D01*
X142714286Y-73650057D02*
X142761905Y-73602438D01*
X142761905Y-73602438D02*
X142857143Y-73554819D01*
X142857143Y-73554819D02*
X143095238Y-73554819D01*
X143095238Y-73554819D02*
X143190476Y-73602438D01*
X143190476Y-73602438D02*
X143238095Y-73650057D01*
X143238095Y-73650057D02*
X143285714Y-73745295D01*
X143285714Y-73745295D02*
X143285714Y-73840533D01*
X143285714Y-73840533D02*
X143238095Y-73983390D01*
X143238095Y-73983390D02*
X142666667Y-74554819D01*
X142666667Y-74554819D02*
X143285714Y-74554819D01*
X177108333Y-87854819D02*
X176775000Y-87378628D01*
X176536905Y-87854819D02*
X176536905Y-86854819D01*
X176536905Y-86854819D02*
X176917857Y-86854819D01*
X176917857Y-86854819D02*
X177013095Y-86902438D01*
X177013095Y-86902438D02*
X177060714Y-86950057D01*
X177060714Y-86950057D02*
X177108333Y-87045295D01*
X177108333Y-87045295D02*
X177108333Y-87188152D01*
X177108333Y-87188152D02*
X177060714Y-87283390D01*
X177060714Y-87283390D02*
X177013095Y-87331009D01*
X177013095Y-87331009D02*
X176917857Y-87378628D01*
X176917857Y-87378628D02*
X176536905Y-87378628D01*
X178060714Y-87854819D02*
X177489286Y-87854819D01*
X177775000Y-87854819D02*
X177775000Y-86854819D01*
X177775000Y-86854819D02*
X177679762Y-86997676D01*
X177679762Y-86997676D02*
X177584524Y-87092914D01*
X177584524Y-87092914D02*
X177489286Y-87140533D01*
X181864580Y-90954166D02*
X181912200Y-91001785D01*
X181912200Y-91001785D02*
X181959819Y-91144642D01*
X181959819Y-91144642D02*
X181959819Y-91239880D01*
X181959819Y-91239880D02*
X181912200Y-91382737D01*
X181912200Y-91382737D02*
X181816961Y-91477975D01*
X181816961Y-91477975D02*
X181721723Y-91525594D01*
X181721723Y-91525594D02*
X181531247Y-91573213D01*
X181531247Y-91573213D02*
X181388390Y-91573213D01*
X181388390Y-91573213D02*
X181197914Y-91525594D01*
X181197914Y-91525594D02*
X181102676Y-91477975D01*
X181102676Y-91477975D02*
X181007438Y-91382737D01*
X181007438Y-91382737D02*
X180959819Y-91239880D01*
X180959819Y-91239880D02*
X180959819Y-91144642D01*
X180959819Y-91144642D02*
X181007438Y-91001785D01*
X181007438Y-91001785D02*
X181055057Y-90954166D01*
X180959819Y-90620832D02*
X180959819Y-89954166D01*
X180959819Y-89954166D02*
X181959819Y-90382737D01*
X167220833Y-92054819D02*
X166887500Y-91578628D01*
X166649405Y-92054819D02*
X166649405Y-91054819D01*
X166649405Y-91054819D02*
X167030357Y-91054819D01*
X167030357Y-91054819D02*
X167125595Y-91102438D01*
X167125595Y-91102438D02*
X167173214Y-91150057D01*
X167173214Y-91150057D02*
X167220833Y-91245295D01*
X167220833Y-91245295D02*
X167220833Y-91388152D01*
X167220833Y-91388152D02*
X167173214Y-91483390D01*
X167173214Y-91483390D02*
X167125595Y-91531009D01*
X167125595Y-91531009D02*
X167030357Y-91578628D01*
X167030357Y-91578628D02*
X166649405Y-91578628D01*
X167554167Y-91054819D02*
X168173214Y-91054819D01*
X168173214Y-91054819D02*
X167839881Y-91435771D01*
X167839881Y-91435771D02*
X167982738Y-91435771D01*
X167982738Y-91435771D02*
X168077976Y-91483390D01*
X168077976Y-91483390D02*
X168125595Y-91531009D01*
X168125595Y-91531009D02*
X168173214Y-91626247D01*
X168173214Y-91626247D02*
X168173214Y-91864342D01*
X168173214Y-91864342D02*
X168125595Y-91959580D01*
X168125595Y-91959580D02*
X168077976Y-92007200D01*
X168077976Y-92007200D02*
X167982738Y-92054819D01*
X167982738Y-92054819D02*
X167697024Y-92054819D01*
X167697024Y-92054819D02*
X167601786Y-92007200D01*
X167601786Y-92007200D02*
X167554167Y-91959580D01*
X172395833Y-87854819D02*
X172062500Y-87378628D01*
X171824405Y-87854819D02*
X171824405Y-86854819D01*
X171824405Y-86854819D02*
X172205357Y-86854819D01*
X172205357Y-86854819D02*
X172300595Y-86902438D01*
X172300595Y-86902438D02*
X172348214Y-86950057D01*
X172348214Y-86950057D02*
X172395833Y-87045295D01*
X172395833Y-87045295D02*
X172395833Y-87188152D01*
X172395833Y-87188152D02*
X172348214Y-87283390D01*
X172348214Y-87283390D02*
X172300595Y-87331009D01*
X172300595Y-87331009D02*
X172205357Y-87378628D01*
X172205357Y-87378628D02*
X171824405Y-87378628D01*
X172776786Y-86950057D02*
X172824405Y-86902438D01*
X172824405Y-86902438D02*
X172919643Y-86854819D01*
X172919643Y-86854819D02*
X173157738Y-86854819D01*
X173157738Y-86854819D02*
X173252976Y-86902438D01*
X173252976Y-86902438D02*
X173300595Y-86950057D01*
X173300595Y-86950057D02*
X173348214Y-87045295D01*
X173348214Y-87045295D02*
X173348214Y-87140533D01*
X173348214Y-87140533D02*
X173300595Y-87283390D01*
X173300595Y-87283390D02*
X172729167Y-87854819D01*
X172729167Y-87854819D02*
X173348214Y-87854819D01*
X163754819Y-102538094D02*
X162754819Y-102538094D01*
X162754819Y-102538094D02*
X162754819Y-102299999D01*
X162754819Y-102299999D02*
X162802438Y-102157142D01*
X162802438Y-102157142D02*
X162897676Y-102061904D01*
X162897676Y-102061904D02*
X162992914Y-102014285D01*
X162992914Y-102014285D02*
X163183390Y-101966666D01*
X163183390Y-101966666D02*
X163326247Y-101966666D01*
X163326247Y-101966666D02*
X163516723Y-102014285D01*
X163516723Y-102014285D02*
X163611961Y-102061904D01*
X163611961Y-102061904D02*
X163707200Y-102157142D01*
X163707200Y-102157142D02*
X163754819Y-102299999D01*
X163754819Y-102299999D02*
X163754819Y-102538094D01*
X162754819Y-101633332D02*
X162754819Y-101014285D01*
X162754819Y-101014285D02*
X163135771Y-101347618D01*
X163135771Y-101347618D02*
X163135771Y-101204761D01*
X163135771Y-101204761D02*
X163183390Y-101109523D01*
X163183390Y-101109523D02*
X163231009Y-101061904D01*
X163231009Y-101061904D02*
X163326247Y-101014285D01*
X163326247Y-101014285D02*
X163564342Y-101014285D01*
X163564342Y-101014285D02*
X163659580Y-101061904D01*
X163659580Y-101061904D02*
X163707200Y-101109523D01*
X163707200Y-101109523D02*
X163754819Y-101204761D01*
X163754819Y-101204761D02*
X163754819Y-101490475D01*
X163754819Y-101490475D02*
X163707200Y-101585713D01*
X163707200Y-101585713D02*
X163659580Y-101633332D01*
X163754819Y-83213094D02*
X162754819Y-83213094D01*
X162754819Y-83213094D02*
X162754819Y-82974999D01*
X162754819Y-82974999D02*
X162802438Y-82832142D01*
X162802438Y-82832142D02*
X162897676Y-82736904D01*
X162897676Y-82736904D02*
X162992914Y-82689285D01*
X162992914Y-82689285D02*
X163183390Y-82641666D01*
X163183390Y-82641666D02*
X163326247Y-82641666D01*
X163326247Y-82641666D02*
X163516723Y-82689285D01*
X163516723Y-82689285D02*
X163611961Y-82736904D01*
X163611961Y-82736904D02*
X163707200Y-82832142D01*
X163707200Y-82832142D02*
X163754819Y-82974999D01*
X163754819Y-82974999D02*
X163754819Y-83213094D01*
X163754819Y-81689285D02*
X163754819Y-82260713D01*
X163754819Y-81974999D02*
X162754819Y-81974999D01*
X162754819Y-81974999D02*
X162897676Y-82070237D01*
X162897676Y-82070237D02*
X162992914Y-82165475D01*
X162992914Y-82165475D02*
X163040533Y-82260713D01*
X174612609Y-93054476D02*
X174612609Y-93864516D01*
X174612609Y-93864516D02*
X174660258Y-93959815D01*
X174660258Y-93959815D02*
X174707908Y-94007465D01*
X174707908Y-94007465D02*
X174803206Y-94055114D01*
X174803206Y-94055114D02*
X174993804Y-94055114D01*
X174993804Y-94055114D02*
X175089103Y-94007465D01*
X175089103Y-94007465D02*
X175136752Y-93959815D01*
X175136752Y-93959815D02*
X175184402Y-93864516D01*
X175184402Y-93864516D02*
X175184402Y-93054476D01*
X175613246Y-93149775D02*
X175660896Y-93102125D01*
X175660896Y-93102125D02*
X175756195Y-93054476D01*
X175756195Y-93054476D02*
X175994442Y-93054476D01*
X175994442Y-93054476D02*
X176089741Y-93102125D01*
X176089741Y-93102125D02*
X176137390Y-93149775D01*
X176137390Y-93149775D02*
X176185039Y-93245074D01*
X176185039Y-93245074D02*
X176185039Y-93340373D01*
X176185039Y-93340373D02*
X176137390Y-93483321D01*
X176137390Y-93483321D02*
X175565597Y-94055114D01*
X175565597Y-94055114D02*
X176185039Y-94055114D01*
X182754819Y-102288094D02*
X181754819Y-102288094D01*
X181754819Y-102288094D02*
X181754819Y-102049999D01*
X181754819Y-102049999D02*
X181802438Y-101907142D01*
X181802438Y-101907142D02*
X181897676Y-101811904D01*
X181897676Y-101811904D02*
X181992914Y-101764285D01*
X181992914Y-101764285D02*
X182183390Y-101716666D01*
X182183390Y-101716666D02*
X182326247Y-101716666D01*
X182326247Y-101716666D02*
X182516723Y-101764285D01*
X182516723Y-101764285D02*
X182611961Y-101811904D01*
X182611961Y-101811904D02*
X182707200Y-101907142D01*
X182707200Y-101907142D02*
X182754819Y-102049999D01*
X182754819Y-102049999D02*
X182754819Y-102288094D01*
X182088152Y-100859523D02*
X182754819Y-100859523D01*
X181707200Y-101097618D02*
X182421485Y-101335713D01*
X182421485Y-101335713D02*
X182421485Y-100716666D01*
X144754819Y-102538094D02*
X143754819Y-102538094D01*
X143754819Y-102538094D02*
X143754819Y-102299999D01*
X143754819Y-102299999D02*
X143802438Y-102157142D01*
X143802438Y-102157142D02*
X143897676Y-102061904D01*
X143897676Y-102061904D02*
X143992914Y-102014285D01*
X143992914Y-102014285D02*
X144183390Y-101966666D01*
X144183390Y-101966666D02*
X144326247Y-101966666D01*
X144326247Y-101966666D02*
X144516723Y-102014285D01*
X144516723Y-102014285D02*
X144611961Y-102061904D01*
X144611961Y-102061904D02*
X144707200Y-102157142D01*
X144707200Y-102157142D02*
X144754819Y-102299999D01*
X144754819Y-102299999D02*
X144754819Y-102538094D01*
X143850057Y-101585713D02*
X143802438Y-101538094D01*
X143802438Y-101538094D02*
X143754819Y-101442856D01*
X143754819Y-101442856D02*
X143754819Y-101204761D01*
X143754819Y-101204761D02*
X143802438Y-101109523D01*
X143802438Y-101109523D02*
X143850057Y-101061904D01*
X143850057Y-101061904D02*
X143945295Y-101014285D01*
X143945295Y-101014285D02*
X144040533Y-101014285D01*
X144040533Y-101014285D02*
X144183390Y-101061904D01*
X144183390Y-101061904D02*
X144754819Y-101633332D01*
X144754819Y-101633332D02*
X144754819Y-101014285D01*
X142433333Y-84172080D02*
X142385714Y-84219700D01*
X142385714Y-84219700D02*
X142242857Y-84267319D01*
X142242857Y-84267319D02*
X142147619Y-84267319D01*
X142147619Y-84267319D02*
X142004762Y-84219700D01*
X142004762Y-84219700D02*
X141909524Y-84124461D01*
X141909524Y-84124461D02*
X141861905Y-84029223D01*
X141861905Y-84029223D02*
X141814286Y-83838747D01*
X141814286Y-83838747D02*
X141814286Y-83695890D01*
X141814286Y-83695890D02*
X141861905Y-83505414D01*
X141861905Y-83505414D02*
X141909524Y-83410176D01*
X141909524Y-83410176D02*
X142004762Y-83314938D01*
X142004762Y-83314938D02*
X142147619Y-83267319D01*
X142147619Y-83267319D02*
X142242857Y-83267319D01*
X142242857Y-83267319D02*
X142385714Y-83314938D01*
X142385714Y-83314938D02*
X142433333Y-83362557D01*
X142766667Y-83267319D02*
X143385714Y-83267319D01*
X143385714Y-83267319D02*
X143052381Y-83648271D01*
X143052381Y-83648271D02*
X143195238Y-83648271D01*
X143195238Y-83648271D02*
X143290476Y-83695890D01*
X143290476Y-83695890D02*
X143338095Y-83743509D01*
X143338095Y-83743509D02*
X143385714Y-83838747D01*
X143385714Y-83838747D02*
X143385714Y-84076842D01*
X143385714Y-84076842D02*
X143338095Y-84172080D01*
X143338095Y-84172080D02*
X143290476Y-84219700D01*
X143290476Y-84219700D02*
X143195238Y-84267319D01*
X143195238Y-84267319D02*
X142909524Y-84267319D01*
X142909524Y-84267319D02*
X142814286Y-84219700D01*
X142814286Y-84219700D02*
X142766667Y-84172080D01*
X166936905Y-87854819D02*
X166936905Y-86854819D01*
X166936905Y-86854819D02*
X167175000Y-86854819D01*
X167175000Y-86854819D02*
X167317857Y-86902438D01*
X167317857Y-86902438D02*
X167413095Y-86997676D01*
X167413095Y-86997676D02*
X167460714Y-87092914D01*
X167460714Y-87092914D02*
X167508333Y-87283390D01*
X167508333Y-87283390D02*
X167508333Y-87426247D01*
X167508333Y-87426247D02*
X167460714Y-87616723D01*
X167460714Y-87616723D02*
X167413095Y-87711961D01*
X167413095Y-87711961D02*
X167317857Y-87807200D01*
X167317857Y-87807200D02*
X167175000Y-87854819D01*
X167175000Y-87854819D02*
X166936905Y-87854819D01*
X168413095Y-86854819D02*
X167936905Y-86854819D01*
X167936905Y-86854819D02*
X167889286Y-87331009D01*
X167889286Y-87331009D02*
X167936905Y-87283390D01*
X167936905Y-87283390D02*
X168032143Y-87235771D01*
X168032143Y-87235771D02*
X168270238Y-87235771D01*
X168270238Y-87235771D02*
X168365476Y-87283390D01*
X168365476Y-87283390D02*
X168413095Y-87331009D01*
X168413095Y-87331009D02*
X168460714Y-87426247D01*
X168460714Y-87426247D02*
X168460714Y-87664342D01*
X168460714Y-87664342D02*
X168413095Y-87759580D01*
X168413095Y-87759580D02*
X168365476Y-87807200D01*
X168365476Y-87807200D02*
X168270238Y-87854819D01*
X168270238Y-87854819D02*
X168032143Y-87854819D01*
X168032143Y-87854819D02*
X167936905Y-87807200D01*
X167936905Y-87807200D02*
X167889286Y-87759580D01*
X172734580Y-90966666D02*
X172782200Y-91014285D01*
X172782200Y-91014285D02*
X172829819Y-91157142D01*
X172829819Y-91157142D02*
X172829819Y-91252380D01*
X172829819Y-91252380D02*
X172782200Y-91395237D01*
X172782200Y-91395237D02*
X172686961Y-91490475D01*
X172686961Y-91490475D02*
X172591723Y-91538094D01*
X172591723Y-91538094D02*
X172401247Y-91585713D01*
X172401247Y-91585713D02*
X172258390Y-91585713D01*
X172258390Y-91585713D02*
X172067914Y-91538094D01*
X172067914Y-91538094D02*
X171972676Y-91490475D01*
X171972676Y-91490475D02*
X171877438Y-91395237D01*
X171877438Y-91395237D02*
X171829819Y-91252380D01*
X171829819Y-91252380D02*
X171829819Y-91157142D01*
X171829819Y-91157142D02*
X171877438Y-91014285D01*
X171877438Y-91014285D02*
X171925057Y-90966666D01*
X171829819Y-90109523D02*
X171829819Y-90299999D01*
X171829819Y-90299999D02*
X171877438Y-90395237D01*
X171877438Y-90395237D02*
X171925057Y-90442856D01*
X171925057Y-90442856D02*
X172067914Y-90538094D01*
X172067914Y-90538094D02*
X172258390Y-90585713D01*
X172258390Y-90585713D02*
X172639342Y-90585713D01*
X172639342Y-90585713D02*
X172734580Y-90538094D01*
X172734580Y-90538094D02*
X172782200Y-90490475D01*
X172782200Y-90490475D02*
X172829819Y-90395237D01*
X172829819Y-90395237D02*
X172829819Y-90204761D01*
X172829819Y-90204761D02*
X172782200Y-90109523D01*
X172782200Y-90109523D02*
X172734580Y-90061904D01*
X172734580Y-90061904D02*
X172639342Y-90014285D01*
X172639342Y-90014285D02*
X172401247Y-90014285D01*
X172401247Y-90014285D02*
X172306009Y-90061904D01*
X172306009Y-90061904D02*
X172258390Y-90109523D01*
X172258390Y-90109523D02*
X172210771Y-90204761D01*
X172210771Y-90204761D02*
X172210771Y-90395237D01*
X172210771Y-90395237D02*
X172258390Y-90490475D01*
X172258390Y-90490475D02*
X172306009Y-90538094D01*
X172306009Y-90538094D02*
X172401247Y-90585713D01*
X153466667Y-77707200D02*
X153609524Y-77754819D01*
X153609524Y-77754819D02*
X153847619Y-77754819D01*
X153847619Y-77754819D02*
X153942857Y-77707200D01*
X153942857Y-77707200D02*
X153990476Y-77659580D01*
X153990476Y-77659580D02*
X154038095Y-77564342D01*
X154038095Y-77564342D02*
X154038095Y-77469104D01*
X154038095Y-77469104D02*
X153990476Y-77373866D01*
X153990476Y-77373866D02*
X153942857Y-77326247D01*
X153942857Y-77326247D02*
X153847619Y-77278628D01*
X153847619Y-77278628D02*
X153657143Y-77231009D01*
X153657143Y-77231009D02*
X153561905Y-77183390D01*
X153561905Y-77183390D02*
X153514286Y-77135771D01*
X153514286Y-77135771D02*
X153466667Y-77040533D01*
X153466667Y-77040533D02*
X153466667Y-76945295D01*
X153466667Y-76945295D02*
X153514286Y-76850057D01*
X153514286Y-76850057D02*
X153561905Y-76802438D01*
X153561905Y-76802438D02*
X153657143Y-76754819D01*
X153657143Y-76754819D02*
X153895238Y-76754819D01*
X153895238Y-76754819D02*
X154038095Y-76802438D01*
X154371429Y-76754819D02*
X154609524Y-77754819D01*
X154609524Y-77754819D02*
X154800000Y-77040533D01*
X154800000Y-77040533D02*
X154990476Y-77754819D01*
X154990476Y-77754819D02*
X155228572Y-76754819D01*
X156133333Y-77754819D02*
X155561905Y-77754819D01*
X155847619Y-77754819D02*
X155847619Y-76754819D01*
X155847619Y-76754819D02*
X155752381Y-76897676D01*
X155752381Y-76897676D02*
X155657143Y-76992914D01*
X155657143Y-76992914D02*
X155561905Y-77040533D01*
X172546667Y-96707200D02*
X172689524Y-96754819D01*
X172689524Y-96754819D02*
X172927619Y-96754819D01*
X172927619Y-96754819D02*
X173022857Y-96707200D01*
X173022857Y-96707200D02*
X173070476Y-96659580D01*
X173070476Y-96659580D02*
X173118095Y-96564342D01*
X173118095Y-96564342D02*
X173118095Y-96469104D01*
X173118095Y-96469104D02*
X173070476Y-96373866D01*
X173070476Y-96373866D02*
X173022857Y-96326247D01*
X173022857Y-96326247D02*
X172927619Y-96278628D01*
X172927619Y-96278628D02*
X172737143Y-96231009D01*
X172737143Y-96231009D02*
X172641905Y-96183390D01*
X172641905Y-96183390D02*
X172594286Y-96135771D01*
X172594286Y-96135771D02*
X172546667Y-96040533D01*
X172546667Y-96040533D02*
X172546667Y-95945295D01*
X172546667Y-95945295D02*
X172594286Y-95850057D01*
X172594286Y-95850057D02*
X172641905Y-95802438D01*
X172641905Y-95802438D02*
X172737143Y-95754819D01*
X172737143Y-95754819D02*
X172975238Y-95754819D01*
X172975238Y-95754819D02*
X173118095Y-95802438D01*
X173451429Y-95754819D02*
X173689524Y-96754819D01*
X173689524Y-96754819D02*
X173880000Y-96040533D01*
X173880000Y-96040533D02*
X174070476Y-96754819D01*
X174070476Y-96754819D02*
X174308572Y-95754819D01*
X175118095Y-96088152D02*
X175118095Y-96754819D01*
X174880000Y-95707200D02*
X174641905Y-96421485D01*
X174641905Y-96421485D02*
X175260952Y-96421485D01*
X125266666Y-92314819D02*
X125266666Y-93029104D01*
X125266666Y-93029104D02*
X125219047Y-93171961D01*
X125219047Y-93171961D02*
X125123809Y-93267200D01*
X125123809Y-93267200D02*
X124980952Y-93314819D01*
X124980952Y-93314819D02*
X124885714Y-93314819D01*
X125695238Y-92410057D02*
X125742857Y-92362438D01*
X125742857Y-92362438D02*
X125838095Y-92314819D01*
X125838095Y-92314819D02*
X126076190Y-92314819D01*
X126076190Y-92314819D02*
X126171428Y-92362438D01*
X126171428Y-92362438D02*
X126219047Y-92410057D01*
X126219047Y-92410057D02*
X126266666Y-92505295D01*
X126266666Y-92505295D02*
X126266666Y-92600533D01*
X126266666Y-92600533D02*
X126219047Y-92743390D01*
X126219047Y-92743390D02*
X125647619Y-93314819D01*
X125647619Y-93314819D02*
X126266666Y-93314819D01*
X142433333Y-90629580D02*
X142385714Y-90677200D01*
X142385714Y-90677200D02*
X142242857Y-90724819D01*
X142242857Y-90724819D02*
X142147619Y-90724819D01*
X142147619Y-90724819D02*
X142004762Y-90677200D01*
X142004762Y-90677200D02*
X141909524Y-90581961D01*
X141909524Y-90581961D02*
X141861905Y-90486723D01*
X141861905Y-90486723D02*
X141814286Y-90296247D01*
X141814286Y-90296247D02*
X141814286Y-90153390D01*
X141814286Y-90153390D02*
X141861905Y-89962914D01*
X141861905Y-89962914D02*
X141909524Y-89867676D01*
X141909524Y-89867676D02*
X142004762Y-89772438D01*
X142004762Y-89772438D02*
X142147619Y-89724819D01*
X142147619Y-89724819D02*
X142242857Y-89724819D01*
X142242857Y-89724819D02*
X142385714Y-89772438D01*
X142385714Y-89772438D02*
X142433333Y-89820057D01*
X143338095Y-89724819D02*
X142861905Y-89724819D01*
X142861905Y-89724819D02*
X142814286Y-90201009D01*
X142814286Y-90201009D02*
X142861905Y-90153390D01*
X142861905Y-90153390D02*
X142957143Y-90105771D01*
X142957143Y-90105771D02*
X143195238Y-90105771D01*
X143195238Y-90105771D02*
X143290476Y-90153390D01*
X143290476Y-90153390D02*
X143338095Y-90201009D01*
X143338095Y-90201009D02*
X143385714Y-90296247D01*
X143385714Y-90296247D02*
X143385714Y-90534342D01*
X143385714Y-90534342D02*
X143338095Y-90629580D01*
X143338095Y-90629580D02*
X143290476Y-90677200D01*
X143290476Y-90677200D02*
X143195238Y-90724819D01*
X143195238Y-90724819D02*
X142957143Y-90724819D01*
X142957143Y-90724819D02*
X142861905Y-90677200D01*
X142861905Y-90677200D02*
X142814286Y-90629580D01*
X133038095Y-87454819D02*
X133038095Y-88264342D01*
X133038095Y-88264342D02*
X133085714Y-88359580D01*
X133085714Y-88359580D02*
X133133333Y-88407200D01*
X133133333Y-88407200D02*
X133228571Y-88454819D01*
X133228571Y-88454819D02*
X133419047Y-88454819D01*
X133419047Y-88454819D02*
X133514285Y-88407200D01*
X133514285Y-88407200D02*
X133561904Y-88359580D01*
X133561904Y-88359580D02*
X133609523Y-88264342D01*
X133609523Y-88264342D02*
X133609523Y-87454819D01*
X134609523Y-88454819D02*
X134038095Y-88454819D01*
X134323809Y-88454819D02*
X134323809Y-87454819D01*
X134323809Y-87454819D02*
X134228571Y-87597676D01*
X134228571Y-87597676D02*
X134133333Y-87692914D01*
X134133333Y-87692914D02*
X134038095Y-87740533D01*
X142308333Y-77959580D02*
X142260714Y-78007200D01*
X142260714Y-78007200D02*
X142117857Y-78054819D01*
X142117857Y-78054819D02*
X142022619Y-78054819D01*
X142022619Y-78054819D02*
X141879762Y-78007200D01*
X141879762Y-78007200D02*
X141784524Y-77911961D01*
X141784524Y-77911961D02*
X141736905Y-77816723D01*
X141736905Y-77816723D02*
X141689286Y-77626247D01*
X141689286Y-77626247D02*
X141689286Y-77483390D01*
X141689286Y-77483390D02*
X141736905Y-77292914D01*
X141736905Y-77292914D02*
X141784524Y-77197676D01*
X141784524Y-77197676D02*
X141879762Y-77102438D01*
X141879762Y-77102438D02*
X142022619Y-77054819D01*
X142022619Y-77054819D02*
X142117857Y-77054819D01*
X142117857Y-77054819D02*
X142260714Y-77102438D01*
X142260714Y-77102438D02*
X142308333Y-77150057D01*
X143260714Y-78054819D02*
X142689286Y-78054819D01*
X142975000Y-78054819D02*
X142975000Y-77054819D01*
X142975000Y-77054819D02*
X142879762Y-77197676D01*
X142879762Y-77197676D02*
X142784524Y-77292914D01*
X142784524Y-77292914D02*
X142689286Y-77340533D01*
X173812465Y-76333955D02*
X173812465Y-75619670D01*
X173812465Y-75619670D02*
X173860084Y-75476813D01*
X173860084Y-75476813D02*
X173955322Y-75381575D01*
X173955322Y-75381575D02*
X174098179Y-75333955D01*
X174098179Y-75333955D02*
X174193417Y-75333955D01*
X172812465Y-75333955D02*
X173383893Y-75333955D01*
X173098179Y-75333955D02*
X173098179Y-76333955D01*
X173098179Y-76333955D02*
X173193417Y-76191098D01*
X173193417Y-76191098D02*
X173288655Y-76095860D01*
X173288655Y-76095860D02*
X173383893Y-76048241D01*
D11*
%TO.C,SW3*%
X147700000Y-97200000D02*
X147700000Y-111400000D01*
X147700000Y-111400000D02*
X161900000Y-111400000D01*
X161900000Y-97200000D02*
X147700000Y-97200000D01*
X161900000Y-111400000D02*
X161900000Y-97200000D01*
%TO.C,SW2*%
X128590000Y-97200000D02*
X128590000Y-111400000D01*
X128590000Y-111400000D02*
X142790000Y-111400000D01*
X142790000Y-97200000D02*
X128590000Y-97200000D01*
X142790000Y-111400000D02*
X142790000Y-97200000D01*
%TO.C,C4*%
X142453733Y-87890000D02*
X142746267Y-87890000D01*
X142453733Y-88910000D02*
X142746267Y-88910000D01*
%TO.C,Y1*%
X131360000Y-74460000D02*
X131420000Y-74460000D01*
X131360000Y-79940000D02*
X131360000Y-74460000D01*
X131420000Y-79940000D02*
X131360000Y-79940000D01*
X131420000Y-80400000D02*
X131420000Y-79940000D01*
X133620000Y-74460000D02*
X136500000Y-74460000D01*
X133620000Y-79940000D02*
X133620000Y-80400000D01*
X136500000Y-79940000D02*
X133620000Y-79940000D01*
X138700000Y-74460000D02*
X138760000Y-74460000D01*
X138760000Y-74460000D02*
X138760000Y-79940000D01*
X138760000Y-79940000D02*
X138700000Y-79940000D01*
%TO.C,C2*%
X142253733Y-75290000D02*
X142546267Y-75290000D01*
X142253733Y-76310000D02*
X142546267Y-76310000D01*
%TO.C,R1*%
X177529724Y-85277500D02*
X177020276Y-85277500D01*
X177529724Y-86322500D02*
X177020276Y-86322500D01*
%TO.C,C7*%
X179565000Y-90641233D02*
X179565000Y-90933767D01*
X180585000Y-90641233D02*
X180585000Y-90933767D01*
%TO.C,R3*%
X167729724Y-89477500D02*
X167220276Y-89477500D01*
X167729724Y-90522500D02*
X167220276Y-90522500D01*
%TO.C,R2*%
X172817224Y-85277500D02*
X172307776Y-85277500D01*
X172817224Y-86322500D02*
X172307776Y-86322500D01*
%TO.C,D3*%
X162565000Y-97875000D02*
X162565000Y-100335000D01*
X162565000Y-100335000D02*
X164035000Y-100335000D01*
X164035000Y-100335000D02*
X164035000Y-97875000D01*
%TO.C,D1*%
X162565000Y-78675000D02*
X162565000Y-81135000D01*
X162565000Y-81135000D02*
X164035000Y-81135000D01*
X164035000Y-81135000D02*
X164035000Y-78675000D01*
D12*
%TO.C,U2*%
X177898606Y-91800000D02*
G75*
G02*
X177451394Y-91800000I-223606J0D01*
G01*
X177451394Y-91800000D02*
G75*
G02*
X177898606Y-91800000I223606J0D01*
G01*
X177816419Y-91800000D02*
G75*
G02*
X177533581Y-91800000I-141419J0D01*
G01*
X177533581Y-91800000D02*
G75*
G02*
X177816419Y-91800000I141419J0D01*
G01*
X177775000Y-91800000D02*
G75*
G02*
X177575000Y-91800000I-100000J0D01*
G01*
X177575000Y-91800000D02*
G75*
G02*
X177775000Y-91800000I100000J0D01*
G01*
X177875000Y-91800000D02*
G75*
G02*
X177675000Y-91800000I-100000J0D01*
G01*
X177675000Y-91800000D02*
G75*
G02*
X177875000Y-91800000I100000J0D01*
G01*
D11*
%TO.C,D4*%
X181565000Y-97875000D02*
X181565000Y-100335000D01*
X181565000Y-100335000D02*
X183035000Y-100335000D01*
X183035000Y-100335000D02*
X183035000Y-97875000D01*
%TO.C,D2*%
X143565000Y-97875000D02*
X143565000Y-100335000D01*
X143565000Y-100335000D02*
X145035000Y-100335000D01*
X145035000Y-100335000D02*
X145035000Y-97875000D01*
%TO.C,C3*%
X142453733Y-84732500D02*
X142746267Y-84732500D01*
X142453733Y-85752500D02*
X142746267Y-85752500D01*
%TO.C,D5*%
X165940000Y-85065000D02*
X165940000Y-86535000D01*
X165940000Y-86535000D02*
X168400000Y-86535000D01*
X168400000Y-85065000D02*
X165940000Y-85065000D01*
%TO.C,C6*%
X170265000Y-91008767D02*
X170265000Y-90716233D01*
X171285000Y-91008767D02*
X171285000Y-90716233D01*
%TO.C,SW1*%
X147700000Y-78200000D02*
X147700000Y-92400000D01*
X147700000Y-92400000D02*
X161900000Y-92400000D01*
X161900000Y-78200000D02*
X147700000Y-78200000D01*
X161900000Y-92400000D02*
X161900000Y-78200000D01*
%TO.C,SW4*%
X166780000Y-97200000D02*
X166780000Y-111400000D01*
X166780000Y-111400000D02*
X180980000Y-111400000D01*
X180980000Y-97200000D02*
X166780000Y-97200000D01*
X180980000Y-111400000D02*
X180980000Y-97200000D01*
%TO.C,J2*%
X124540000Y-89800000D02*
X124540000Y-83740000D01*
X126660000Y-83740000D02*
X124540000Y-83740000D01*
X126660000Y-89800000D02*
X124540000Y-89800000D01*
X126660000Y-89800000D02*
X126660000Y-83740000D01*
X126660000Y-90800000D02*
X126660000Y-91860000D01*
X126660000Y-91860000D02*
X125600000Y-91860000D01*
%TO.C,C5*%
X142453733Y-91190000D02*
X142746267Y-91190000D01*
X142453733Y-92210000D02*
X142746267Y-92210000D01*
%TO.C,U1*%
X130190000Y-84390000D02*
X130190000Y-84840000D01*
X130190000Y-91610000D02*
X130190000Y-91160000D01*
X130640000Y-84390000D02*
X130190000Y-84390000D01*
X130640000Y-91610000D02*
X130190000Y-91610000D01*
X136960000Y-84390000D02*
X137410000Y-84390000D01*
X136960000Y-91610000D02*
X137410000Y-91610000D01*
X137410000Y-84390000D02*
X137410000Y-84840000D01*
X137410000Y-91610000D02*
X137410000Y-91160000D01*
X129600000Y-84840000D02*
X129260000Y-84370000D01*
X129940000Y-84370000D01*
X129600000Y-84840000D01*
G36*
X129600000Y-84840000D02*
G01*
X129260000Y-84370000D01*
X129940000Y-84370000D01*
X129600000Y-84840000D01*
G37*
%TO.C,C1*%
X142291233Y-78690000D02*
X142583767Y-78690000D01*
X142291233Y-79710000D02*
X142583767Y-79710000D01*
%TO.C,J1*%
X168810000Y-75895000D02*
X168810000Y-77595000D01*
X178150000Y-75895000D02*
X178150000Y-77595000D01*
%TD*%
M02*
