M48
; DRILL file {KiCad 8.0.4-8.0.4-0~ubuntu20.04.1} date 2024-10-13T12:17:39+0300
; FORMAT={-:-/ absolute / metric / decimal}
; #@! TF.CreationDate,2024-10-13T12:17:39+03:00
; #@! TF.GenerationSoftware,Kicad,Pcbnew,8.0.4-8.0.4-0~ubuntu20.04.1
; #@! TF.FileFunction,Plated,1,2,PTH
FMAT,2
METRIC
; #@! TA.AperFunction,Plated,PTH,ViaDrill
T1C0.300
; #@! TA.AperFunction,Plated,PTH,ComponentDrill
T2C0.600
; #@! TA.AperFunction,Plated,PTH,ComponentDrill
T3C0.800
; #@! TA.AperFunction,Plated,PTH,ComponentDrill
T4C1.500
%
G90
G05
T1
X127.6Y-92.351
X127.8Y-89.8
X128.4Y-82.4
X128.4Y-93.7
X131.55Y-94.15
X132.1Y-81.1
X135.4Y-94.0
X137.2Y-82.2
X139.75Y-89.85
X140.2Y-77.0
X140.2Y-92.8
X140.287Y-81.2
X140.5Y-88.1
X140.65Y-86.65
X143.4Y-81.0
X146.4Y-91.0
X164.2Y-96.4
X165.0Y-91.4
X166.875Y-88.8
X169.2Y-81.2
X172.6Y-81.2
X173.6Y-81.4
X176.7Y-81.3
X178.475Y-91.2
X179.3Y-88.1
T3
X125.6Y-84.8
X125.6Y-86.8
X125.6Y-88.8
X125.6Y-90.8
T4
X131.88Y-101.76
X138.23Y-99.22
X150.99Y-82.76
X150.99Y-101.76
X157.34Y-80.22
X157.34Y-99.22
X170.07Y-101.76
X176.42Y-99.22
T2
G00X169.16Y-75.12
M15
G01X169.16Y-74.32
M16
G05
G00X169.16Y-79.45
M15
G01X169.16Y-78.35
M16
G05
G00X177.8Y-75.12
M15
G01X177.8Y-74.32
M16
G05
G00X177.8Y-79.45
M15
G01X177.8Y-78.35
M16
G05
M30
